# xmcd
#
# Track frame offsets: 
#        150
#        12022
#        23310
#        38665
#        49395
#        62665
#        82580
#        92797
#        102187
#        115227
#        130090
#        144492
#        154532
#        167285
#        190440
#        201032
#        218367
#        231065
#        240275
#        254482
#
# Disc length: 3651 seconds
#
# Revision: 1
# Processed by: cddbd v1.5.2PL0 Copyright (c) Steve Scherf et al.
# Submitted via: ExactAudioCopyFreeDBPlugin 1.0
#
DISCID=eb0e4114
DTITLE=J.J. Cale - The Very Best of J.J. Cale
DYEAR=1997
DGENRE=Blues
TTITLE0=Call Me the Breeze
TTITLE1=Crazy Mama
TTITLE2=Magnolia
TTITLE3=After Midnight
TTITLE4=Lies
TTITLE5=Midnight in Memphis
TTITLE6=Cajun Moon
TTITLE7=Rock and Roll Records
TTITLE8=Cocaine
TTITLE9=Hey Baby
TTITLE10=I'll Make Love to You Anytime
TTITLE11=Don't Cry Sister
TTITLE12=Thirteen Days
TTITLE13=Sensitive Kind
TTITLE14=Carry On
TTITLE15=Mama Don't
TTITLE16=City Girls
TTITLE17=Devil in Disguise
TTITLE18=Don't Wait
TTITLE19=Money Talks
EXTD=
EXTT0=
EXTT1=
EXTT2=
EXTT3=
EXTT4=
EXTT5=
EXTT6=
EXTT7=
EXTT8=
EXTT9=
EXTT10=
EXTT11=
EXTT12=
EXTT13=
EXTT14=
EXTT15=
EXTT16=
EXTT17=
EXTT18=
EXTT19=
PLAYORDER=
